<svg width="411" height="139" viewBox="0 0 411 139" fill="none" xmlns="http://www.w3.org/2000/svg">
<path fill-rule="evenodd" clip-rule="evenodd" d="M90 74.3046C81 29.1474 0 112.111 0 112.111V139C0 139 81 60 90 103C99 146 187 151 202 91C209.87 59.5195 251.6 77.8654 283.138 91.7302C311.709 104.291 331.914 113.174 311 78C309.962 76.2547 309.029 74.5717 308.196 72.949C320.718 76.6318 324.765 72.3624 311 48.0504C309.722 45.7927 308.602 43.6342 307.633 41.5712C328.92 20.3399 411 42 411 42V10.2444C411 10.2444 275.246 -27.3769 307.633 41.5712C301.39 47.7981 300.376 57.7145 308.196 72.949C301.693 71.0362 292.904 66.9785 283.138 62.4695C251.6 47.909 209.87 28.6428 202 61.7026C187 124.713 99 119.462 90 74.3046Z" fill="#5B50DC" fill-opacity="0.2"/>
</svg>
